<svg xmlns="http://www.w3.org/2000/svg" viewBox="0 0 97.28 140.04"><defs><style>.cls-1{fill:none;stroke:#414043;stroke-linecap:round;stroke-linejoin:round;stroke-width:3px;}.cls-2{fill:#414043;}.cls-3{fill:#2d2c2e;}.cls-4{fill:#616161;}.cls-5{fill:#ffd445;}.cls-6{fill:#fff;}</style></defs><g id="圖層_2" data-name="圖層 2"><g id="OBJECTS"><path class="cls-1" d="M48.64,26.66A18.35,18.35,0,0,1,58.21,9.24"/><path class="cls-2" d="M55.77,36.15a7.14,7.14,0,0,1-7.13,7.14h0a7.14,7.14,0,0,1-7.14-7.14V27.67a7.14,7.14,0,0,1,7.14-7.13h0a7.13,7.13,0,0,1,7.13,7.13Z"/><path class="cls-3" d="M64.08,46.06A15.44,15.44,0,0,1,48.64,61.5h0A15.45,15.45,0,0,1,33.19,46.06V43.72A15.45,15.45,0,0,1,48.64,28.27h0A15.45,15.45,0,0,1,64.08,43.72Z"/><path class="cls-2" d="M97.28,91.4A48.64,48.64,0,1,1,48.64,42.76,48.64,48.64,0,0,1,97.28,91.4Z"/><path class="cls-3" d="M69,54.46A42.35,42.35,0,0,1,11.7,111.8,42.35,42.35,0,1,0,69,54.46Z"/><path class="cls-4" d="M34.21,76.43C25.05,84.67,14,87.3,9.49,82.31s-.73-15.73,8.42-24,20.22-10.88,24.72-5.88S43.36,68.18,34.21,76.43Z"/><polygon class="cls-5" points="58.21 0 59.22 7.3 67 6.39 59.84 9.22 63.64 16.72 58.21 10.41 52.77 16.72 56.57 9.22 49.42 6.39 57.2 7.3 58.21 0"/><path class="cls-6" d="M27.72,91.52a9.42,9.42,0,0,1,1.75-3.63q7.89-11.49,15.76-23a5.92,5.92,0,0,1,2.54-2.29,4.31,4.31,0,0,1,4.91,1.12,9.45,9.45,0,0,1,.93,1.16L69.84,88.58a6.52,6.52,0,0,1,1.24,2.79,2.72,2.72,0,0,1-2.26,3.28,8.79,8.79,0,0,1-1.77.18q-17.61,0-35.24,0a7.76,7.76,0,0,1-1.92-.23,2.8,2.8,0,0,1-2.17-2.23Z"/><rect class="cls-6" x="27.72" y="103.43" width="43.4" height="6.02" rx="3.01"/></g></g></svg>