<svg xmlns="http://www.w3.org/2000/svg" viewBox="0 0 128.28 128.27"><defs><style>.cls-1{fill:#5e3015;}.cls-2{fill:#8a4a24;}</style></defs><g id="圖層_2" data-name="圖層 2"><g id="OBJECTS"><path class="cls-1" d="M66.17,124.91a2,2,0,0,1-2,2h0a2,2,0,0,1-2-2V3.36a2,2,0,0,1,2-2h0a2,2,0,0,1,2,2Z"/><path class="cls-1" d="M3.36,66.17a2,2,0,0,1-2-2h0a2,2,0,0,1,2-2H124.91a2,2,0,0,1,2,2h0a2,2,0,0,1-2,2Z"/><path class="cls-1" d="M22.6,108.55a2,2,0,0,1-2.88,0h0a2,2,0,0,1,0-2.88l86-85.95a2,2,0,0,1,2.88,0h0a2,2,0,0,1,0,2.88Z"/><path class="cls-1" d="M19.72,22.6a2,2,0,0,1,0-2.88h0a2,2,0,0,1,2.88,0l85.95,86a2,2,0,0,1,0,2.88h0a2,2,0,0,1-2.88,0Z"/><path class="cls-2" d="M74.26,64.14A10.12,10.12,0,1,1,64.14,54,10.12,10.12,0,0,1,74.26,64.14Z"/><path class="cls-1" d="M70.37,64.14a6.23,6.23,0,1,1-6.23-6.23A6.23,6.23,0,0,1,70.37,64.14Z"/><path class="cls-2" d="M64.14,18.26A45.88,45.88,0,1,0,110,64.14,45.88,45.88,0,0,0,64.14,18.26Zm0,81A35.15,35.15,0,1,1,99.29,64.14,35.15,35.15,0,0,1,64.14,99.29Z"/><path class="cls-1" d="M64.14,24.24A39.9,39.9,0,1,0,104,64.14,39.9,39.9,0,0,0,64.14,24.24Zm0,75.05A35.15,35.15,0,1,1,99.29,64.14,35.15,35.15,0,0,1,64.14,99.29Z"/><path class="cls-2" d="M64.14,0a4.47,4.47,0,0,0-4.47,4.47V9.63a4.47,4.47,0,1,0,8.93,0V4.47A4.47,4.47,0,0,0,64.14,0Z"/><path class="cls-2" d="M64.14,114.17a4.47,4.47,0,0,0-4.47,4.47v5.17a4.47,4.47,0,0,0,8.93,0v-5.17A4.47,4.47,0,0,0,64.14,114.17Z"/><path class="cls-2" d="M109.49,18.79a4.46,4.46,0,0,0-6.32,0l-3.65,3.65a4.47,4.47,0,0,0,6.31,6.32l3.66-3.66A4.47,4.47,0,0,0,109.49,18.79Z"/><path class="cls-2" d="M28.76,99.52a4.46,4.46,0,0,0-6.32,0l-3.65,3.65a4.47,4.47,0,0,0,6.31,6.32l3.66-3.66A4.47,4.47,0,0,0,28.76,99.52Z"/><path class="cls-2" d="M128.28,64.14a4.47,4.47,0,0,0-4.47-4.47h-5.17a4.47,4.47,0,1,0,0,8.93h5.17A4.47,4.47,0,0,0,128.28,64.14Z"/><path class="cls-2" d="M14.1,64.14a4.47,4.47,0,0,0-4.47-4.47H4.47a4.47,4.47,0,1,0,0,8.93H9.63A4.47,4.47,0,0,0,14.1,64.14Z"/><path class="cls-2" d="M109.49,109.49a4.48,4.48,0,0,0,0-6.32l-3.66-3.65a4.46,4.46,0,0,0-6.31,6.31l3.65,3.66A4.48,4.48,0,0,0,109.49,109.49Z"/><path class="cls-2" d="M28.76,28.76a4.48,4.48,0,0,0,0-6.32L25.1,18.79a4.46,4.46,0,0,0-6.31,6.31l3.65,3.66A4.48,4.48,0,0,0,28.76,28.76Z"/></g></g></svg>