<svg xmlns="http://www.w3.org/2000/svg" viewBox="0 0 101.08 101.08"><defs><style>.cls-1{fill:#414043;}.cls-2{fill:#757575;}.cls-3{fill:#e0b41d;}.cls-4{fill:#ffd445;}.cls-5{fill:#ffdf78;}.cls-6{fill:#fff;}</style></defs><g id="圖層_2" data-name="圖層 2"><g id="OBJECTS"><path class="cls-1" d="M101.08,50.54A50.54,50.54,0,1,1,50.54,0,50.54,50.54,0,0,1,101.08,50.54Z"/><path class="cls-2" d="M94.72,50.54A44.18,44.18,0,1,1,50.54,6.37,44.17,44.17,0,0,1,94.72,50.54Z"/><path class="cls-3" d="M91,50.54A40.48,40.48,0,1,1,50.54,10.06,40.48,40.48,0,0,1,91,50.54Z"/><path class="cls-4" d="M85.91,50.54A35.37,35.37,0,1,1,50.54,15.17,35.37,35.37,0,0,1,85.91,50.54Z"/><path class="cls-5" d="M53.8,39.17A15.64,15.64,0,1,1,38.16,23.53,15.65,15.65,0,0,1,53.8,39.17Z"/><path class="cls-5" d="M72.67,66.29a7.39,7.39,0,1,1-7.39-7.38A7.39,7.39,0,0,1,72.67,66.29Z"/><path class="cls-6" d="M22.54,24.69,24,26c.22-.24.45-.48.68-.71l-1.42-1.39Z"/><path class="cls-6" d="M30.64,83l.89.53,1-1.72-.85-.5Z"/><path class="cls-6" d="M22,75.73l.69.77,1.46-1.35c-.23-.24-.45-.48-.66-.73Z"/><path class="cls-6" d="M42,13.41l.45,1.93,1-.21L43,13.19Z"/><path class="cls-6" d="M41.1,87.47l1,.24.44-1.94-1-.23Z"/><path class="cls-6" d="M87.22,40.16l-.3-1L85,39.76c.09.31.19.63.28,1Z"/><path class="cls-6" d="M12.72,55.27c0,.34.09.68.15,1l2-.29c-.05-.33-.1-.65-.13-1Z"/><path class="cls-6" d="M12.84,44.94l2,.29c0-.32.1-.64.15-1l-2-.34C13,44.26,12.89,44.6,12.84,44.94Z"/><path class="cls-6" d="M15.79,66.2c.14.31.29.63.44.94L18,66.27c-.14-.29-.28-.59-.41-.89Z"/><path class="cls-6" d="M16.16,34.08l1.79.86c.14-.29.29-.59.44-.88l-1.77-.91Z"/><path class="cls-6" d="M31.4,17.58l1,1.72.85-.48-1-1.74Z"/><path class="cls-6" d="M80.32,30.09l.55.81,1.66-1.08L82,29Z"/><path class="cls-6" d="M73,22.22l.76.62L75,21.32l-.81-.65Z"/><path class="cls-6" d="M79.83,71.69l1.61,1.16L82,72,80.4,70.88Z"/><path class="cls-6" d="M84.77,62.12l1.88.63c.11-.32.21-.65.32-1l-1.9-.59Z"/><path class="cls-6" d="M86.66,50.4v.14c0,.33,0,.66,0,1l2,.06c0-.35,0-.69,0-1V50.4Z"/><path class="cls-6" d="M72.3,79.38,73.5,81l.81-.63-1.23-1.56Z"/><path class="cls-6" d="M62.85,84.51l.67,1.87,1-.37-.73-1.84Z"/><path class="cls-6" d="M52.3,86.62l.09,2c.34,0,.69,0,1-.06l-.14-2Z"/><path class="cls-6" d="M53.13,14.51l1,.08.19-2-1-.09Z"/><path class="cls-6" d="M63.63,16.87c.31.11.61.24.91.36l.78-1.82-1-.4Z"/><polygon class="cls-6" points="50.54 16.6 54.11 46.97 84.49 50.54 54.11 54.11 50.54 84.48 46.97 54.11 16.6 50.54 46.97 46.97 50.54 16.6"/><polygon class="cls-6" points="68.31 32.77 54.28 50.54 68.31 68.31 50.54 54.28 32.77 68.31 46.8 50.54 32.77 32.77 50.54 46.8 68.31 32.77"/></g></g></svg>