<svg width="22" height="22" viewBox="0 0 22 22" fill="none" xmlns="http://www.w3.org/2000/svg">
<path d="M19.2498 2.75H2.74984C1.73692 2.75 0.916504 3.57042 0.916504 4.58333V7.33333H2.74984V4.58333H19.2498V17.4167H12.8332V19.25H19.2498C20.2628 19.25 21.0832 18.4296 21.0832 17.4167V4.58333C21.0832 3.57042 20.2628 2.75 19.2498 2.75ZM0.916504 16.5V19.25H3.6665C3.6665 17.7329 2.43359 16.5 0.916504 16.5ZM0.916504 12.8333V14.6667C3.4465 14.6667 5.49984 16.72 5.49984 19.25H7.33317C7.33317 15.7071 4.45942 12.8333 0.916504 12.8333ZM0.916504 9.16667V11C5.47234 11 9.1665 14.6942 9.1665 19.25H10.9998C10.9998 13.6813 6.48525 9.16667 0.916504 9.16667Z" fill="white"/>
</svg>
